# xmcd
#
# Track frame offsets:
#	150
#	17108
#	36039
#	54999
#	73267
#	95021
#	109202
#	126717
#	144721
#	160937
#
# Disc length: 2391 seconds
#
# Revision: 0
# Processed by: cddbd v1.5.2PL0 Copyright (c) Steve Scherf et al.
# Submitted via: dBpowerAMP V4.0
#
DISCID=9509550a
DTITLE=Alvarado Road Show - Different Stuff
DYEAR=2004
DGENRE=Christian Country 
TTITLE0=Different
TTITLE1=Freedom Hurts
TTITLE2=You Never Know Who's Watching 
TTITLE3=April In March
TTITLE4=I Belong With You 
TTITLE5=How About That 
TTITLE6=I'm What Happened To Me
TTITLE7=On My Last Day
TTITLE8=Holdin' On
TTITLE9=Time 
EXTD=
EXTT0=
EXTT1=
EXTT2=
EXTT3=
EXTT4=
EXTT5=
EXTT6=
EXTT7=
EXTT8=
EXTT9=
PLAYORDER=
